<?xml version="1.0" encoding="utf-8"?>
<!-- Generator: Adobe Illustrator 24.0.3, SVG Export Plug-In . SVG Version: 6.00 Build 0)  -->
<svg version="1.1" id="Шар_1" xmlns="http://www.w3.org/2000/svg" xmlns:xlink="http://www.w3.org/1999/xlink" x="0px" y="0px"
	 viewBox="0 0 256 128" style="enable-background:new 0 0 256 128;" xml:space="preserve">
<style type="text/css">
	.st0{fill:none;stroke:#262626;stroke-width:5;stroke-miterlimit:10;}
</style>
<g>
	<path class="st0" d="M128.7,91.5c-1.7,0-3.4-0.5-4.9-1.4L7.2,20.1C2.6,17.4,2,12.7,2.9,9.5s3.8-7,9.2-7h231.8
		c5.3,0,8.3,3.7,9.1,6.9c0.9,3.2,0.3,7.9-4.2,10.7l-115.2,70C132.2,91,130.5,91.5,128.7,91.5z"/>
</g>
<path class="st0" d="M2.5,12v101.5c0,6.6,5.4,12,12,12h227c6.6,0,12-5.4,12-12V12"/>
</svg>
